# xmcd
#
# Track frame offsets:
#	150
#	12607
#	27336
#	49556
#	67666
#	80866
#	93906
#	101723
#	113836
#	129321
#	142938
#	157275
#	171435
#	185160
#	199506
#	211513
#	225435
#	237735
#	253033
#	267730
#	279639
#	293988
#	306056
#	320757
#	335210
#
# Disc length: 4631 seconds
#
# Revision: 1
# Processed by: cddbd v1.5.1PL2 Copyright (c) Steve Scherf et al.
# Submitted via: audiograbber 1.83.01
#
DISCID=7d121519
DTITLE=Gary Stewart - Stepping Out/Little Junior
DYEAR=1900
DGENRE=Country
TTITLE0=Flat Natural Born Good Timin' Man
TTITLE1=Quits
TTITLE2=Trudy
TTITLE3=I Still Can't Believe You're Gone
TTITLE4=Lord What a Woman
TTITLE5=Oh Sweet Temptation
TTITLE6=If You've Got the Money (I've Got the Time)
TTITLE7=I Can't Be Your Backdoor
TTITLE8=Hank Western
TTITLE9=Easy People
TTITLE10=In Some Room By the Street
TTITLE11=Whiskey Trip
TTITLE12=Little Junior
TTITLE13=Stone Wall(All Around Your Heart)
TTITLE14=Can't You See
TTITLE15=Single Again
TTITLE16=Tequila After Midnight
TTITLE17=I Got Mine
TTITLE18=If My Eyes Touch You
TTITLE19=Honky Tonkin'
TTITLE20=You're Running Wild
TTITLE21=Let's Forget That We're Married
TTITLE22=Honky Tonk Man
TTITLE23=Memories Swim in Whiskey
TTITLE24=Half Alive and Still Drinking
EXTD=
EXTT0=
EXTT1=
EXTT2=
EXTT3=
EXTT4=
EXTT5=
EXTT6=
EXTT7=
EXTT8=
EXTT9=
EXTT10=
EXTT11=
EXTT12=
EXTT13=
EXTT14=
EXTT15=
EXTT16=
EXTT17=
EXTT18=
EXTT19=
EXTT20=
EXTT21=
EXTT22=
EXTT23=
EXTT24=
PLAYORDER=
